# xmcd CD database file
#
# Track frame offsets:
#	150
#	27819
#	56491
#	88253
#	124650
#	151741
#	177061
#	206286
#	239198
#	260376
#	276586
#	301340
#	329479
#
# Disc length: 4739 seconds
#
# Revision: 5
# Processed by: cddbd v1.4PL0 Copyright (c) Steve Scherf et al.
# Submitted via: CDex 1.50beta9
#
DISCID=b412810d
DTITLE=Various Artist - Café Del Mar - Volumen Dos
DYEAR=1995
DGENRE=Easy Listening
TTITLE0=Silent Poets - Moment Scale(Dubmaster X Remix)
TTITLE1=Psychedelic Research Lab - Tarenah (Chill Mix)
TTITLE2=D-Note - D-Votion
TTITLE3=A Man Called Adam With Eddie Parker - Easter Song
TTITLE4=Paco De Lucía - Entre Dos Aguas
TTITLE5=Marc Antoine - Unity
TTITLE6=José Padilla - Sabor De Verano (The Wau Out West Mix)
TTITLE7=Salt Tank - Sargasso Sea
TTITLE8=Mark's Et Henrys - (The Making Of ...) Jill
TTITLE9=Ramp - Everyboy Loves The Sunshine
TTITLE10=Deadbeats - Feel Good
TTITLE11=The Metaluna Mutant - Blinky Blue Eyed Sunrise
TTITLE12=Sabres Of Paradise - Haunted Dancehall
EXTD=YEAR: 1995
EXTT0=
EXTT1=
EXTT2=
EXTT3=
EXTT4=
EXTT5=
EXTT6=
EXTT7=
EXTT8=
EXTT9=
EXTT10=
EXTT11=
EXTT12=
PLAYORDER=
